<svg width="20" height="16" viewBox="0 0 20 16" fill="none" xmlns="http://www.w3.org/2000/svg">
<path d="M8 12C8.28333 12 8.521 11.904 8.713 11.712C8.90433 11.5207 9 11.2833 9 11V9H11C11.2833 9 11.521 8.904 11.713 8.712C11.9043 8.52067 12 8.28333 12 8C12 7.71667 11.9043 7.479 11.713 7.287C11.521 7.09567 11.2833 7 11 7H9V5C9 4.71667 8.90433 4.479 8.713 4.287C8.521 4.09567 8.28333 4 8 4C7.71667 4 7.47933 4.09567 7.288 4.287C7.096 4.479 7 4.71667 7 5V7H5C4.71667 7 4.479 7.09567 4.287 7.287C4.09567 7.479 4 7.71667 4 8C4 8.28333 4.09567 8.52067 4.287 8.712C4.479 8.904 4.71667 9 5 9H7V11C7 11.2833 7.096 11.5207 7.288 11.712C7.47933 11.904 7.71667 12 8 12ZM2 16C1.45 16 0.979333 15.8043 0.588 15.413C0.196 15.021 0 14.55 0 14V2C0 1.45 0.196 0.979333 0.588 0.588C0.979333 0.196 1.45 0 2 0H14C14.55 0 15.021 0.196 15.413 0.588C15.8043 0.979333 16 1.45 16 2V6.5L19.15 3.35C19.3 3.2 19.4793 3.16233 19.688 3.237C19.896 3.31233 20 3.46667 20 3.7V12.3C20 12.5333 19.896 12.6873 19.688 12.762C19.4793 12.8373 19.3 12.8 19.15 12.65L16 9.5V14C16 14.55 15.8043 15.021 15.413 15.413C15.021 15.8043 14.55 16 14 16H2Z" fill="black"/>
</svg>
